<svg class="buildings-2" viewBox="0 0 7000 800" version="1.1" xmlns="http://www.w3.org/2000/svg" xmlns:xlink="http://www.w3.org/1999/xlink" xml:space="preserve" style="fill-rule:evenodd;clip-rule:evenodd;stroke-linejoin:round;stroke-miterlimit:1.41421;">
	<path d="M6445.35,161l0,76l29.8059,0l0,-131l153.714,0l0,93l40.4182,0l0,-38l136.522,0l0,38l53.8526,0l0,-199l79.8909,0l0,161l60.441,0l0,638.5l-663.863,-1.81899e-12l-6336.14,0l0,-638.5l109.218,0l0,76l29.8059,0l0,-131l153.714,0l0,93l40.4182,0l0,-38l136.522,0l0,38l53.8526,0l0,-199l79.8909,0l0,161l66.6477,0l0,-55l153.714,0l0,55l130.626,0l0,77l22.5139,0l0,-197l109.218,0l0,65l50.7585,0l0,93l40.4182,0l0,-125l136.522,0l0,125l55.105,0l0,-199l79.8909,0l0,161l66.6477,0l0,-55l153.714,0l0,55l152.801,0l0,76l28.7673,0l0,-131l153.714,0l0,93l40.4182,0l0,-38l136.522,0l0,38l53.8526,0l0,-199l79.8909,0l0,161l66.6477,0l0,-55l153.714,0l0,55l130.626,0l0,77l22.5139,0l0,-197l109.218,0l0,65l50.7585,0l0,93l40.4182,0l0,-125l136.522,0l0,125l55.105,0l0,-199l79.8909,0l0,161l66.0053,0l0,-55l154.357,0l0,55l176.298,0l0,38l53.8526,0l0,-199l79.8909,0l0,161l66.6477,0l0,-55l153.714,0l0,55l130.626,0l0,77l22.5139,0l0,-197l109.218,0l0,65l50.7585,0l0,93l40.4182,0l0,-125l136.522,0l0,125l55.105,0l0,-199l79.8909,0l0,161l66.6477,0l0,-55l153.714,0l0,55l40.23,0l0,-55l114.665,0l0,93l40.4182,0l0,-38l136.522,0l0,38l53.8526,0l0,-199l79.8909,0l0,161l66.6477,0l0,-55l153.714,0l0,55l130.626,0l0,77l22.5139,0l0,-197l109.218,0l0,65l50.7585,0l0,93l40.4182,0l0,-125l136.522,0l0,125l55.105,0l0,-199l79.8909,0l0,161l66.6477,0l0,-55l153.714,0l0,55l157.238,0Z"/>
	
</svg>