<svg class="buildings-1" viewBox="0 0 1820 962" version="1.1" xmlns="http://www.w3.org/2000/svg" xmlns:xlink="http://www.w3.org/1999/xlink">
    <g stroke="none" stroke-width="1" fill="none" fill-rule="evenodd">
        <g transform="translate(-168.000000, -3483.000000)" id="buildings-1">
            <path d="M1851,3589 L1699,3589 L1699,3682 L1659,3682 L1659,3644 L1524,3644 L1524,3682 L1470,3682 L1470,3483 L1391,3483 L1391,3644 L1325,3644 L1325,3589 L1173,3589 L1173,3644 L1139,3644 L1139,3622 L1031,3622 L1031,3644 L1022,3644 L1022,3682 L1022,3524 L914,3524 L914,3589 L845,3589 L845,3682 L805,3682 L805,3644 L670,3644 L670,3682 L616,3682 L616,3483 L537,3483 L537,3644 L471,3644 L471,3589 L319,3589 L319,3644 L168,3644 L168,4444.5 L1988,4444.5 L1988,3644 L1880,3644 L1880,3720 L1851,3720 L1851,3589 Z"></path>
        </g>
    </g>
</svg>