<?xml version="1.0" encoding="UTF-8" standalone="no"?>
<svg width="149px" height="120px" viewBox="0 0 149 120" version="1.1" xmlns="http://www.w3.org/2000/svg" xmlns:xlink="http://www.w3.org/1999/xlink">
    <defs></defs>
    <g id="Assets" stroke="none" stroke-width="1" fill="none" fill-rule="evenodd">
        <g transform="translate(-174.000000, -186.000000)" id="SuljamLogoText">
            <g transform="translate(173.000000, 186.000000)">
                <g id="Text" transform="translate(54.016882, 12.638778)" fill="#AD6B82">
                    <path d="M18.911475,8.25324961 L19.6644159,8.25324961 C19.5891218,6.73994975 19.3004944,5.45995144 18.7985329,4.41325072 C18.296571,3.36655001 17.6251999,2.52162393 16.7844156,1.87847248 C15.9436313,1.23532102 14.9648102,0.768717931 13.8479443,0.478671096 C12.7310823,0.188621891 11.507552,0.0435988685 10.1773571,0.0435988685 C9.0981412,0.0435988685 8.01265163,0.157096555 6.92088836,0.384091534 C5.8291251,0.611086512 4.84402632,0.989411477 3.96559598,1.5190684 C3.08716563,2.04872533 2.37187083,2.7612352 1.81971551,3.65660593 C1.26756019,4.55197666 0.991478594,5.6680358 0.991478594,7.00478335 C0.991478594,8.31630857 1.25500809,9.38192702 1.78206551,10.2016308 C2.30912608,11.0213345 3.00559589,11.6770991 3.87147493,12.1689206 C4.7373579,12.6607421 5.70990536,13.0453736 6.78912125,13.3228112 C7.86833714,13.6002497 8.94755303,13.8650773 10.0267689,14.1172927 C11.0557874,14.3695092 12.1287296,14.6154187 13.2455916,14.8550249 C14.3624535,15.0946306 15.3789247,15.4477356 16.2950011,15.9143348 C17.2110775,16.3809339 17.9640184,17.0114762 18.5538237,17.8059616 C19.143629,18.600443 19.4385277,19.6786706 19.4385277,21.0406405 C19.4385277,22.2008357 19.1812731,23.1970918 18.6667619,24.0294087 C18.1522526,24.8617256 17.4808815,25.5427086 16.6526446,26.0723655 C15.8244076,26.6020224 14.8895062,26.98665 13.8479403,27.2262561 C12.8063705,27.4658619 11.7585309,27.585665 10.7044137,27.585665 C9.27382413,27.585665 7.96245426,27.4280296 6.77030805,27.1127573 C5.57815005,26.7974865 4.54913153,26.2867489 3.68324856,25.5805397 C2.81736559,24.8743344 2.14599446,23.9600459 1.66913126,22.8376822 C1.19226806,21.7153185 0.953836465,20.347044 0.953836465,18.7328628 L0.200895604,18.7328628 C0.175797589,20.4479373 0.420503388,21.9107925 0.935011469,23.1214284 C1.44952073,24.3320683 2.17736291,25.3220198 3.11854193,26.0912789 C4.05971702,26.860538 5.17657897,27.4217218 6.46912778,27.7748265 C7.76167658,28.1279299 9.17344118,28.3044834 10.7044177,28.3044834 C11.8589257,28.3044834 13.0008863,28.1720695 14.1302996,27.9072427 C15.2597128,27.642415 16.27618,27.2136466 17.1797091,26.6209358 C18.0832381,26.028225 18.8110803,25.2778837 19.3632395,24.3699038 C19.9153948,23.4619238 20.1914764,22.3647824 20.1914764,21.0784756 C20.1914764,19.6660611 19.9467707,18.5436973 19.4573606,17.7113844 C18.96795,16.8790675 18.3091262,16.2106937 17.4808893,15.7062631 C16.6526524,15.2018285 15.680105,14.7982831 14.563243,14.4956232 C13.4463811,14.1929632 12.2604967,13.877694 11.0055979,13.5498117 C9.85108992,13.2723733 8.72167667,13.0075456 7.6173621,12.7553303 C6.51304752,12.5031138 5.52795268,12.1500104 4.66206971,11.6960204 C3.79618674,11.2420305 3.09344325,10.6493197 2.5538353,9.91789209 C2.01422736,9.18646448 1.74442339,8.21543074 1.74442339,7.00479085 C1.74442339,5.79415097 2.00795288,4.7915903 2.53501031,3.99710887 C3.06207087,3.20262743 3.73344199,2.56578057 4.5491276,2.08656829 C5.3648132,1.60735601 6.27461592,1.27316912 7.27853969,1.08400763 C8.28245953,0.89484495 9.2487333,0.800263808 10.177361,0.800263808 C11.3820664,0.800263808 12.5114797,0.926372261 13.5655969,1.17858877 C14.6197141,1.43080528 15.5295168,1.85326714 16.295009,2.4459779 C17.0604972,3.03868865 17.6754012,3.80794777 18.1397131,4.75375919 C18.604025,5.69957061 18.8612816,6.8660744 18.9114789,8.25326659 L18.911475,8.25324961 Z" id="Shape"></path>
                    <path d="M38.6763446,27.6991271 L38.6763446,8.2532101 L37.9234037,8.2532101 L37.9234037,19.2624676 C37.9234037,20.3469998 37.7728155,21.3810874 37.4716392,22.3647342 C37.1704628,23.3483811 36.724972,24.212221 36.1351706,24.9562617 C35.5453653,25.7003025 34.8112495,26.2930093 33.9328191,26.73439 C33.0543888,27.1757708 32.0379176,27.3964592 30.8834096,27.3964592 C30.0551727,27.3964592 29.2708595,27.2766562 28.5304699,27.0370504 C27.7900764,26.7974447 27.1375303,26.4191213 26.5728237,25.9020735 C26.008117,25.3850298 25.5626262,24.7292652 25.2363551,23.9347837 C24.9100809,23.1403023 24.7469445,22.1755731 24.7469445,21.0405963 L24.7469445,8.25321445 L23.9940037,8.25321445 L23.9940037,21.1540868 C23.9940037,22.2890637 24.1634153,23.2916244 24.5022393,24.1617688 C24.8410628,25.0319172 25.3179249,25.7633448 25.9328289,26.3560556 C26.5477289,26.9487664 27.275575,27.3901432 28.1163593,27.680194 C28.9571436,27.9702432 29.8794976,28.1152662 30.8834175,28.1152662 C32.7908663,28.1152662 34.3406717,27.6234447 35.5328258,26.6397978 C36.7249838,25.656151 37.4967457,24.4076796 37.8481194,22.8943797 L37.9234135,22.8943797 L37.9234135,27.6991038 L38.6763544,27.6991038 L38.6763446,27.6991271 Z" id="Shape"></path>
                    <rect id="Rectangle-path" x="42.8175291" y="0.686552808" width="0.75294086" height="27.0124163"></rect>
                    <path d="M48.4646347,4.50802108 L48.4646347,0.686939932 L47.7116938,0.686939932 L47.7116938,4.50802108 L48.4646347,4.50802108 L48.4646347,4.50802108 Z M48.4646347,30.4986667 L48.4646347,8.2531706 L47.7116938,8.2531706 L47.7116938,30.2338421 C47.7116938,31.0409367 47.6426742,31.671479 47.504635,32.1254689 C47.3665958,32.5794589 47.146988,32.9136458 46.8458113,33.1280296 C46.5446349,33.3424138 46.1430678,33.4748276 45.6411059,33.5252703 C45.139144,33.5757138 44.5367913,33.6009353 43.8340478,33.6009353 L43.8340478,34.3575852 C44.56189,34.3575852 45.2144401,34.3260582 45.7916941,34.2630041 C46.3689481,34.1999499 46.8583586,34.0360091 47.2599297,33.7711826 C47.6614969,33.506355 47.9626732,33.115418 48.1634588,32.5983743 C48.3642431,32.0813305 48.4646351,31.3814298 48.4646351,30.4986722 L48.4646347,30.4986667 Z" id="Shape"></path>
                    <path d="M52.5680828,14.2686847 L53.3210237,14.2686847 C53.4465139,12.4527249 54.0739645,11.0466149 55.2033778,10.0503747 C56.332791,9.05411859 57.9139649,8.55599253 59.9468914,8.55599253 C61.2268929,8.55599253 62.2433601,8.72623867 62.9963009,9.06673173 C63.7492418,9.40722439 64.3202221,9.84229939 64.7092419,10.3719524 C65.0982613,10.9016093 65.3429669,11.4817069 65.4433577,12.1122492 C65.5437497,12.7427914 65.5939459,13.3481114 65.5939459,13.928209 C65.5939459,14.6596366 65.4496322,15.2208204 65.1610064,15.6117566 C64.872379,16.0026923 64.4206129,16.2927435 63.8057128,16.481905 C63.1908128,16.6710677 62.4064956,16.7971757 61.4527732,16.8602299 C60.4990468,16.9232842 59.3570861,16.9926438 58.0268913,17.0683088 C57.223753,17.1187522 56.4206187,17.2259441 55.6174805,17.3898849 C54.8143423,17.5538256 54.0990514,17.8438748 53.4716,18.2600333 C52.8441487,18.6761917 52.3359131,19.2499848 51.9468933,19.9814124 C51.5578739,20.71284 51.3633656,21.6838737 51.3633656,22.8945136 C51.3633656,24.6348104 51.9531709,25.9400311 53.1327776,26.8101755 C54.3123843,27.6803239 55.8810108,28.1153961 57.8386727,28.1153961 C58.8425926,28.1153961 59.7712203,27.9829823 60.6245559,27.7181554 C61.4778876,27.4533278 62.237106,27.0939178 62.9022035,26.6399278 C63.5673009,26.1859378 64.1194562,25.6688941 64.5586734,25.0887964 C64.9978905,24.5086988 65.3178879,23.9033789 65.5186735,23.2728366 L65.5939675,23.2728366 L65.5939675,25.8076149 C65.5939675,26.5390425 65.8010264,27.0371725 66.2151452,27.301997 C66.6292637,27.5668247 67.1124006,27.6992377 67.6645559,27.6992377 L68.7939691,27.6992377 L68.7939691,26.9425878 C68.542989,26.9678094 68.2731862,26.9867258 67.9845572,26.9993366 C67.6959298,27.0119475 67.4261243,26.9867258 67.1751453,26.9236716 C66.9241652,26.8606174 66.7233808,26.7408147 66.5727926,26.5642628 C66.4222045,26.3877113 66.3469104,26.1102729 66.3469104,25.7319459 L66.3469104,13.3607225 C66.3218123,12.3014126 66.1335771,11.4186551 65.7822037,10.7124458 C65.4308312,10.0062405 64.9665181,9.43244751 64.3892641,8.99106674 C63.8120101,8.54968596 63.140639,8.2407214 62.3751468,8.06416909 C61.6096586,7.88761757 60.8002467,7.79934142 59.9469111,7.79934142 C58.7422057,7.79934142 57.6943622,7.96328217 56.8033845,8.29116288 C55.9124028,8.61904439 55.159462,9.07303514 54.5445619,9.65313276 C53.9296618,10.2332304 53.4590723,10.9205219 53.1327973,11.7150033 C52.806523,12.5094848 52.618288,13.3607154 52.5680907,14.2686953 L52.5680828,14.2686847 Z M65.5938476,16.2738297 L65.5938476,19.8679179 C65.5938476,20.8263424 65.4244361,21.7595446 65.0856121,22.6675246 C64.7467885,23.5755045 64.2448278,24.3762945 63.5797304,25.0698866 C62.9146329,25.7634827 62.0926736,26.3246626 61.1138485,26.7534342 C60.1350235,27.1822018 59.0181615,27.3965856 57.7632627,27.3965856 C56.7091455,27.3965856 55.8244415,27.2641718 55.1091467,26.9993449 C54.3938519,26.7345172 53.8103242,26.394025 53.3585596,25.9778665 C52.9067951,25.5617081 52.5867938,25.0824958 52.3985596,24.5402297 C52.2103242,23.9979636 52.1162066,23.4493929 52.1162066,22.8945176 C52.1162066,21.86043 52.2793438,21.0218085 52.6056172,20.378657 C52.9318915,19.7355056 53.3711055,19.231071 53.9232647,18.8653572 C54.47542,18.499643 55.1091451,18.2474281 55.8244399,18.1087073 C56.5397347,17.969988 57.2738506,17.8754069 58.0267914,17.8249634 C58.7797323,17.77452 59.5514981,17.7366877 60.342085,17.7114658 C61.132672,17.6862441 61.8667918,17.62319 62.5444366,17.5223031 C63.2220853,17.4214165 63.824438,17.2763919 64.3514946,17.0872308 C64.8785552,16.8980682 65.267571,16.6269363 65.518554,16.2738317 L65.593848,16.2738317 L65.5938476,16.2738297 Z" id="Shape"></path>
                    <path d="M70.7138219,8.25324961 L70.7138219,27.6991666 L71.4667628,27.6991666 L71.4667628,16.6899091 C71.4667628,15.6053769 71.6110765,14.5712893 71.8997023,13.5876425 C72.1883297,12.6039956 72.6024458,11.7401557 73.1420537,10.996115 C73.6816617,10.2520742 74.3404854,9.65936743 75.118525,9.21798666 C75.8965645,8.77660589 76.7624475,8.55591748 77.7161699,8.55591748 C78.7953858,8.55591748 79.6738162,8.732469 80.3514649,9.0855744 C81.0291137,9.43867783 81.5561703,9.9178913 81.9326427,10.5232112 C82.3091131,11.1285312 82.5663678,11.8347365 82.7044086,12.641831 C82.8424478,13.4489256 82.9114674,14.3064609 82.9114674,15.2144408 L82.9114674,27.6991547 L83.6644082,27.6991547 L83.6644082,15.3657747 C83.6644082,14.4577948 83.8024475,13.593951 84.0785267,12.7742472 C84.3546051,11.9545435 84.7561754,11.2294205 85.2832321,10.5988782 C85.8102926,9.96833594 86.4502914,9.47020989 87.2032323,9.10449608 C87.9561731,8.73878188 88.7969574,8.55592538 89.7255851,8.55592538 C90.7797023,8.55592538 91.651859,8.70725536 92.3420551,9.00991534 C93.0322512,9.31257531 93.5844065,9.74134294 93.998525,10.2962222 C94.4126434,10.8510975 94.7012685,11.5194713 94.864408,12.3013435 C95.0275451,13.0832158 95.1091136,13.9533642 95.1091136,14.9117848 L95.1091136,27.6991666 L95.8620545,27.6991666 L95.8620545,14.9117848 C95.8620545,13.8524749 95.7616625,12.8877457 95.5608782,12.0175973 C95.3600938,11.1474489 95.0212702,10.4034121 94.544407,9.78547904 C94.0675438,9.16754991 93.4400924,8.68203304 92.6620529,8.32892842 C91.8840134,7.97582499 90.9051922,7.7992715 89.7255816,7.7992715 C88.2196999,7.7992715 86.9146037,8.21542995 85.8102891,9.04774289 C84.7059745,9.88005979 83.965585,10.9772012 83.5891126,12.3391711 L83.5138185,12.3391711 C83.1875443,10.9015342 82.5161724,9.77286591 81.4997012,8.95316215 C80.4832301,8.13345839 79.2220536,7.74882685 77.7161719,7.7992715 C76.9632311,7.7992715 76.2542099,7.93168534 75.5891125,8.19651222 C74.9240151,8.46133989 74.3153887,8.83335908 73.7632294,9.31257136 C73.2110741,9.79178364 72.7467583,10.3466589 72.3702898,10.9772012 C71.9938194,11.6077435 71.7177398,12.3013396 71.5420529,13.0579895 L71.4667588,13.0579895 L71.4667588,8.25326541 L70.713818,8.25326541 L70.7138219,8.25324961 Z" id="Shape"></path>
                </g>
                <g id="Logo" transform="translate(34.832824, 59.997320) rotate(-0.000000) translate(-34.832824, -59.997320) translate(0.332824, 0.497320)">
                    <path d="M68.8772585,98.9396173 L34.8386554,118.688666 L34.8386554,79.1906208 L68.8772585,98.9396958 L68.8772585,98.9396173 Z" id="right" fill="#DB707F"></path>
                    <path d="M68.8660239,59.4419634 L68.8660239,98.9376581 L34.8274022,79.1886285 L34.8367433,79.1832088 L0.800121549,59.4353614 L34.8342727,39.6889328 L34.8317067,39.687444 L0.800143802,59.4323948 L0.800143802,19.9343355 L34.8344714,39.6808824 L68.8660344,59.4287889 L68.877407,59.4353872 L68.8660344,59.4419855 L68.8660239,59.4419634 Z" id="Shape" fill="#AD6B82"></path>
                    <path d="M34.9613659,20.0027615 L0.922774725,39.7518034 L0.922774725,0.25377188 L34.9613659,20.00284 L34.9613659,20.0027615 Z" id="left2" fill="#DB707F" transform="translate(17.942070, 20.002788) scale(-1, 1) translate(-17.942070, -20.002788) "></path>
                </g>
            </g>
        </g>
    </g>
</svg>